<svg version="1.1" id="Layer_1" xmlns="http://www.w3.org/2000/svg" xmlns:xlink="http://www.w3.org/1999/xlink" x="0px" y="0px"
	 width="137.908px" height="137.908px" viewBox="0 0 137.908 137.908" enable-background="new 0 0 137.908 137.908"
	 xml:space="preserve">
<g>
	<path d="M49.865,41.345v55.757H39.678V42.214L49.865,41.345z"/>
	<path d="M97.381,73.063v24.038H86.83V73.539c0-2.373-0.5-4.217-1.5-5.535c-1.002-1.317-2.395-1.977-4.18-1.977
		c-1.84,0-3.57,0.408-5.195,1.225c-1.623,0.818-3.408,1.911-5.355,3.281v10.549H60.131V42.147l10.469-0.87v20.4
		c2.219-1.316,4.518-2.345,6.898-3.084c2.381-0.736,4.518-1.106,6.412-1.106c4.977,0,8.465,1.371,10.469,4.111
		C96.379,64.34,97.381,68.161,97.381,73.063z"/>
	<polygon points="60.131,97.102 60.184,97.102 70.451,97.102 70.506,97.102 70.506,87.102 60.131,87.102 "/>
</g>
</svg>
